<svg xmlns="http://www.w3.org/2000/svg" viewBox="0 0 1855.04 316.66"><defs><style>.cls-1,.cls-2{stroke:aqua;}.cls-1,.cls-2,.cls-3{stroke-width:5px;}.cls-2,.cls-3{stroke-miterlimit:10;}.cls-3{fill:#f2f2f2;stroke:#fbb03b;}</style></defs><g id="Warstwa_2" data-name="Warstwa 2"><g id="Warstwa_1-2" data-name="Warstwa 1"><path class="cls-1" d="M200.6,6.83V66.22h-124v64.15h92.77V188H76.62V311.13H2.5V6.83Z"/><path class="cls-1" d="M280,66.22v61.55h99.27V185H280v66.75H392.25v59.39H205.86V6.83H392.25V66.22Z"/><path class="cls-1" d="M446.33,303.33q-26.44-10.83-42.26-32.08T387.38,220.1h78.89Q468,237,478,245.89t26,8.89q16.46,0,26-7.59t9.54-21a24.9,24.9,0,0,0-7.59-18.64,61.43,61.43,0,0,0-18.63-12.14q-11.05-4.75-31.43-10.83-29.49-9.1-48.12-18.21a88.84,88.84,0,0,1-32.07-26.87q-13.44-17.77-13.44-46.39,0-42.46,30.78-66.53T499.22,2.5q50.28,0,81.06,24.06t32.94,67H533q-.87-14.73-10.84-23.19t-25.57-8.45q-13.44,0-21.68,7.15t-8.23,20.59q0,14.73,13.87,23t43.35,17.77q29.46,10,47.89,19.08a91.11,91.11,0,0,1,31.86,26.44q13.44,17.34,13.44,44.64a87.62,87.62,0,0,1-13.22,47.25Q590.67,289,565.54,301.59t-59.39,12.57Q472.78,314.16,446.33,303.33Z"/><path class="cls-1" d="M844.93,6.83V66.22H764.31V311.13H690.18V66.22H609.56V6.83Z"/><path class="cls-1" d="M918.44,6.83v304.3H844.32V6.83Z"/><path class="cls-1" d="M1212.26,6.83l-107.94,304.3h-92.76L903.63,6.83h78.89l75.42,229.74L1133.8,6.83Z"/><polygon class="cls-2" points="1413.86 311.13 1335.4 311.13 1335.34 310.94 1185.48 310.94 1185.41 311.13 1107.83 311.13 1217.93 6.83 1303.76 6.83 1413.86 311.13"/><path class="cls-1" d="M1469.35,253.91h97.09v57.22H1395.22V6.83h74.13Z"/><path class="cls-1" d="M1754.81,257.38H1641.24L1623,311.13h-77.59L1655.55,6.83h85.82l110.1,304.3H1773Zm-19.07-57.22L1698,88.76l-37.27,111.4Z"/></g><g id="Warstwa_2-2" data-name="Warstwa 2"><polygon class="cls-3" points="1253.54 27.15 1181.59 168.53 1253.54 168.53 1181.59 285.93 1330.55 136.97 1243.44 136.97 1253.54 27.15"/></g></g></svg>